<?xml version="1.0" encoding="iso-8859-1"?>
<!-- Generator: Adobe Illustrator 19.0.0, SVG Export Plug-In . SVG Version: 6.00 Build 0)  -->
<svg version="1.1" id="Capa_1" xmlns="http://www.w3.org/2000/svg" xmlns:xlink="http://www.w3.org/1999/xlink" x="0px" y="0px"
	 viewBox="0 0 468.293 468.293" style="enable-background:new 0 0 468.293 468.293;" xml:space="preserve">
<path style="fill:#64798A;" d="M468.293,107.783H0V39.1c0-10.345,8.386-18.732,18.732-18.732h430.829
	c10.345,0,18.732,8.386,18.732,18.732V107.783z"/>
<path style="fill:#3A556A;" d="M468.293,107.783h-265.61l44.327-55.409c3.555-4.443,8.937-7.03,14.627-7.03h206.656V107.783z"/>
<path style="fill:#EBF0F3;" d="M449.561,447.924H18.732C8.386,447.924,0,439.537,0,429.192V109.327h468.293v319.865
	C468.293,439.537,459.906,447.924,449.561,447.924z"/>
<path style="fill:#FCD462;" d="M52.392,82.808H27.417c-3.448,0-6.244-2.795-6.244-6.244V51.588c0-3.448,2.795-6.244,6.244-6.244
	h24.976c3.448,0,6.244,2.795,6.244,6.244v24.976C58.636,80.012,55.841,82.808,52.392,82.808z"/>
<path style="fill:#44C4A1;" d="M108.587,82.808H83.612c-3.448,0-6.244-2.795-6.244-6.244V51.588c0-3.448,2.795-6.244,6.244-6.244
	h24.976c3.448,0,6.244,2.795,6.244,6.244v24.976C114.831,80.012,112.036,82.808,108.587,82.808z"/>
<g>
	<path style="fill:#27A2DB;" d="M164.783,82.808h-24.976c-3.448,0-6.244-2.795-6.244-6.244V51.588c0-3.448,2.796-6.244,6.244-6.244
		h24.976c3.448,0,6.244,2.795,6.244,6.244v24.976C171.026,80.012,168.231,82.808,164.783,82.808z"/>
	<path style="fill:#27A2DB;" d="M78.049,296.746v-35.958l134.412-62.209v32.533l-100.452,45.373v3.14l100.452,46.514v32.533
		L78.049,296.746z"/>
	<path style="fill:#27A2DB;" d="M390.244,260.788v35.958l-134.409,61.925v-32.533l100.452-46.514v-3.14l-100.452-45.373v-32.533
		L390.244,260.788z"/>
</g>
<g>
</g>
<g>
</g>
<g>
</g>
<g>
</g>
<g>
</g>
<g>
</g>
<g>
</g>
<g>
</g>
<g>
</g>
<g>
</g>
<g>
</g>
<g>
</g>
<g>
</g>
<g>
</g>
<g>
</g>
</svg>
